<svg id="eRjLVuoyW9b1" xmlns="http://www.w3.org/2000/svg" xmlns:xlink="http://www.w3.org/1999/xlink" viewBox="0 0 2400 4000" shape-rendering="geometricPrecision" text-rendering="geometricPrecision"><style><![CDATA[#eRjLVuoyW9b3_ts {animation: eRjLVuoyW9b3_ts__ts 3000ms linear infinite normal forwards}@keyframes eRjLVuoyW9b3_ts__ts { 0% {transform: translate(1200px,4252.892308px) scale(1,1)} 10% {transform: translate(1200px,4252.892308px) scale(1.097754,1.097754);animation-timing-function: cubic-bezier(0,0,0.58,1)} 40% {transform: translate(1200px,4252.892308px) scale(0.811233,0.811233);animation-timing-function: cubic-bezier(0.42,0,1,1)} 70% {transform: translate(1200px,4252.892308px) scale(1,1);animation-timing-function: cubic-bezier(0,0,0.58,1)} 76.666667% {transform: translate(1200px,4252.892308px) scale(1.097754,1.097754);animation-timing-function: cubic-bezier(0,0,0.58,1)} 83.333333% {transform: translate(1200px,4252.892308px) scale(1,1);animation-timing-function: cubic-bezier(0,0,0.58,1)} 90% {transform: translate(1200px,4252.892308px) scale(1.045821,1.045821);animation-timing-function: cubic-bezier(0,0,0.58,1)} 93.333333% {transform: translate(1200px,4252.892308px) scale(1,1)} 100% {transform: translate(1200px,4252.892308px) scale(1,1)}} #eRjLVuoyW9b4_to {animation: eRjLVuoyW9b4_to__to 3000ms linear infinite normal forwards}@keyframes eRjLVuoyW9b4_to__to { 0% {transform: translate(1200px,3512.892308px)} 10% {transform: translate(1200px,3624.466009px);animation-timing-function: cubic-bezier(0,0,0.58,1)} 26.666667% {transform: translate(1200px,2870.608738px);animation-timing-function: cubic-bezier(0,0,0.58,1)} 40% {transform: translate(1200px,2681.007243px);animation-timing-function: cubic-bezier(0.42,0,1,1)} 53.333333% {transform: translate(1200px,2870.608738px);animation-timing-function: cubic-bezier(0.42,0,1,1)} 70% {transform: translate(1200px,3512.892308px);animation-timing-function: cubic-bezier(0,0,0.58,1)} 76.666667% {transform: translate(1200px,3624.466009px);animation-timing-function: cubic-bezier(0,0,0.58,1)} 83.333333% {transform: translate(1200px,3512.892308px);animation-timing-function: cubic-bezier(0,0,0.58,1)} 90% {transform: translate(1200px,3540.785733px);animation-timing-function: cubic-bezier(0,0,0.58,1)} 93.333333% {transform: translate(1200px,3512.892308px)} 100% {transform: translate(1200px,3512.892308px)}} #eRjLVuoyW9b4_ts {animation: eRjLVuoyW9b4_ts__ts 3000ms linear infinite normal forwards}@keyframes eRjLVuoyW9b4_ts__ts { 0% {transform: scale(1,1)} 10% {transform: scale(1.03325,0.875876);animation-timing-function: cubic-bezier(0,0,0.58,1)} 26.666667% {transform: scale(0.975545,1.091426);animation-timing-function: cubic-bezier(0,0,0.58,1)} 40% {transform: scale(1.045969,0.940418);animation-timing-function: cubic-bezier(0.42,0,1,1)} 53.333333% {transform: scale(0.975545,1.091426);animation-timing-function: cubic-bezier(0.42,0,1,1)} 70% {transform: scale(1,1);animation-timing-function: cubic-bezier(0,0,0.58,1)} 76.666667% {transform: scale(1.03325,0.875876);animation-timing-function: cubic-bezier(0,0,0.58,1)} 83.333333% {transform: scale(1,1);animation-timing-function: cubic-bezier(0,0,0.58,1)} 90% {transform: scale(1.008313,0.968969);animation-timing-function: cubic-bezier(0,0,0.58,1)} 93.333333% {transform: scale(1,1)} 100% {transform: scale(1,1)}} #eRjLVuoyW9b17_to {animation: eRjLVuoyW9b17_to__to 3000ms linear infinite normal forwards}@keyframes eRjLVuoyW9b17_to__to { 0% {transform: translate(1199.998474px,2452.892308px)} 10% {transform: translate(1199.998474px,2639.259266px);animation-timing-function: cubic-bezier(0,0,0.58,1)} 26.666667% {transform: translate(1199.999847px,1771.525501px);animation-timing-function: cubic-bezier(0,0,0.58,1)} 40% {transform: translate(1199.999847px,1661.029351px);animation-timing-function: cubic-bezier(0.42,0,1,1)} 53.333333% {transform: translate(1199.999847px,1771.525501px);animation-timing-function: cubic-bezier(0.42,0,1,1)} 70% {transform: translate(1199.998474px,2452.892308px);animation-timing-function: cubic-bezier(0,0,0.58,1)} 76.666667% {transform: translate(1199.998474px,2639.259266px);animation-timing-function: cubic-bezier(0,0,0.58,1)} 83.333333% {transform: translate(1199.998474px,2452.892308px);animation-timing-function: cubic-bezier(0,0,0.58,1)} 90% {transform: translate(1199.998474px,2499.484048px);animation-timing-function: cubic-bezier(0,0,0.58,1)} 93.333333% {transform: translate(1199.998474px,2452.892308px)} 100% {transform: translate(1199.998474px,2452.892308px)}}]]></style><defs><linearGradient id="eRjLVuoyW9b5-fill" x1="0" y1="-900" x2="0" y2="900" spreadMethod="pad" gradientUnits="userSpaceOnUse"><stop id="eRjLVuoyW9b5-fill-0" offset="0%" stop-color="rgb(38,191,179)"/><stop id="eRjLVuoyW9b5-fill-1" offset="100%" stop-color="rgb(35,178,167)"/></linearGradient><radialGradient id="eRjLVuoyW9b6-fill" cx="0" cy="0" r="1" spreadMethod="pad" gradientUnits="userSpaceOnUse" gradientTransform="matrix(0 1454.119995 -1518.73999 0 0 -576.619995)"><stop id="eRjLVuoyW9b6-fill-0" offset="0%" stop-color="rgb(38,191,179)"/><stop id="eRjLVuoyW9b6-fill-1" offset="54%" stop-color="rgb(38,191,179)"/><stop id="eRjLVuoyW9b6-fill-2" offset="74%" stop-color="rgb(36,182,170)"/><stop id="eRjLVuoyW9b6-fill-3" offset="100%" stop-color="rgb(32,161,151)"/></radialGradient><linearGradient id="eRjLVuoyW9b7-fill" x1="0" y1="403.5" x2="0" y2="877.5" spreadMethod="pad" gradientUnits="userSpaceOnUse"><stop id="eRjLVuoyW9b7-fill-0" offset="0%" stop-color="rgba(255,255,255,0)"/><stop id="eRjLVuoyW9b7-fill-1" offset="53%" stop-color="rgba(255,255,255,0.11)"/><stop id="eRjLVuoyW9b7-fill-2" offset="100%" stop-color="rgba(255,255,255,0.5)"/></linearGradient><linearGradient id="eRjLVuoyW9b8-fill" x1="0" y1="-490" x2="0" y2="490" spreadMethod="pad" gradientUnits="userSpaceOnUse"><stop id="eRjLVuoyW9b8-fill-0" offset="0%" stop-color="rgba(255,255,255,0.4)"/><stop id="eRjLVuoyW9b8-fill-1" offset="83%" stop-color="rgba(255,255,255,0)"/><stop id="eRjLVuoyW9b8-fill-2" offset="100%" stop-color="rgba(255,255,255,0)"/></linearGradient><radialGradient id="eRjLVuoyW9b9-fill" cx="0" cy="0" r="1" spreadMethod="pad" gradientUnits="userSpaceOnUse" gradientTransform="matrix(480 0 0 320 0 0)"><stop id="eRjLVuoyW9b9-fill-0" offset="0%" stop-color="rgba(0,75,69,0.5)"/><stop id="eRjLVuoyW9b9-fill-1" offset="100%" stop-color="rgba(0,77,70,0)"/></radialGradient><linearGradient id="eRjLVuoyW9b16-stroke" x1="0" y1="-900" x2="0" y2="900" spreadMethod="pad" gradientUnits="userSpaceOnUse"><stop id="eRjLVuoyW9b16-stroke-0" offset="0%" stop-color="rgb(46,170,160)"/><stop id="eRjLVuoyW9b16-stroke-1" offset="100%" stop-color="rgb(42,151,143)"/></linearGradient><radialGradient id="eRjLVuoyW9b18-fill" cx="0" cy="0" r="1" spreadMethod="pad" gradientUnits="userSpaceOnUse" gradientTransform="matrix(0 1000 -1000 0 1200 400)"><stop id="eRjLVuoyW9b18-fill-0" offset="0%" stop-color="rgb(38,191,179)"/><stop id="eRjLVuoyW9b18-fill-1" offset="50%" stop-color="rgb(38,191,179)"/><stop id="eRjLVuoyW9b18-fill-2" offset="100%" stop-color="rgb(30,150,141)"/></radialGradient><linearGradient id="eRjLVuoyW9b18-stroke" x1="1232" y1="200" x2="1232" y2="1448.969971" spreadMethod="pad" gradientUnits="userSpaceOnUse"><stop id="eRjLVuoyW9b18-stroke-0" offset="0%" stop-color="rgb(46,170,160)"/><stop id="eRjLVuoyW9b18-stroke-1" offset="100%" stop-color="rgb(38,135,128)"/></linearGradient><radialGradient id="eRjLVuoyW9b24-fill" cx="0" cy="0" r="1" spreadMethod="pad" gradientUnits="userSpaceOnUse" gradientTransform="matrix(0 -100.973 274.593994 0 0.000007 0.000024)"><stop id="eRjLVuoyW9b24-fill-0" offset="0%" stop-color="rgba(245,148,167,0.5)"/><stop id="eRjLVuoyW9b24-fill-1" offset="100%" stop-color="rgba(245,148,167,0)"/></radialGradient><radialGradient id="eRjLVuoyW9b25-fill" cx="0" cy="0" r="1" spreadMethod="pad" gradientUnits="userSpaceOnUse" gradientTransform="matrix(0 -100.973 274.593994 0 -0.000059 0.000024)"><stop id="eRjLVuoyW9b25-fill-0" offset="0%" stop-color="rgba(245,148,167,0.5)"/><stop id="eRjLVuoyW9b25-fill-1" offset="100%" stop-color="rgba(245,148,167,0)"/></radialGradient><radialGradient id="eRjLVuoyW9b30-fill" cx="0" cy="0" r="1" spreadMethod="pad" gradientUnits="userSpaceOnUse" gradientTransform="matrix(0 1000 -1000 0 1200 400)"><stop id="eRjLVuoyW9b30-fill-0" offset="0%" stop-color="rgb(38,191,179)"/><stop id="eRjLVuoyW9b30-fill-1" offset="50%" stop-color="rgb(38,191,179)"/><stop id="eRjLVuoyW9b30-fill-2" offset="100%" stop-color="rgb(30,150,141)"/></radialGradient><linearGradient id="eRjLVuoyW9b44-fill" x1="477.239985" y1="-101.85998" x2="477.239985" y2="101.866017" spreadMethod="pad" gradientUnits="userSpaceOnUse"><stop id="eRjLVuoyW9b44-fill-0" offset="0%" stop-color="rgb(17,87,81)"/><stop id="eRjLVuoyW9b44-fill-1" offset="100%" stop-color="rgb(38,191,179)"/></linearGradient><linearGradient id="eRjLVuoyW9b45-fill" x1="477.239985" y1="-52.15002" x2="477.239985" y2="52.162984" spreadMethod="pad" gradientUnits="userSpaceOnUse"><stop id="eRjLVuoyW9b45-fill-0" offset="0%" stop-color="rgb(38,191,179)"/><stop id="eRjLVuoyW9b45-fill-1" offset="100%" stop-color="rgb(171,238,233)"/></linearGradient><linearGradient id="eRjLVuoyW9b49-fill" x1="-0.000005" y1="-22.67998" x2="-0.000005" y2="22.67862" spreadMethod="pad" gradientUnits="userSpaceOnUse"><stop id="eRjLVuoyW9b49-fill-0" offset="0%" stop-color="rgba(255,255,255,0.25)"/><stop id="eRjLVuoyW9b49-fill-1" offset="100%" stop-color="rgba(255,255,255,0.5)"/></linearGradient><linearGradient id="eRjLVuoyW9b61-fill" x1="477.238995" y1="-101.85998" x2="477.238995" y2="101.866017" spreadMethod="pad" gradientUnits="userSpaceOnUse"><stop id="eRjLVuoyW9b61-fill-0" offset="0%" stop-color="rgb(17,87,81)"/><stop id="eRjLVuoyW9b61-fill-1" offset="100%" stop-color="rgb(38,191,179)"/></linearGradient><linearGradient id="eRjLVuoyW9b62-fill" x1="477.238995" y1="-52.15002" x2="477.238995" y2="52.162984" spreadMethod="pad" gradientUnits="userSpaceOnUse"><stop id="eRjLVuoyW9b62-fill-0" offset="0%" stop-color="rgb(38,191,179)"/><stop id="eRjLVuoyW9b62-fill-1" offset="100%" stop-color="rgb(171,238,233)"/></linearGradient><linearGradient id="eRjLVuoyW9b66-fill" x1="-0.000019" y1="-22.67998" x2="-0.000019" y2="22.67862" spreadMethod="pad" gradientUnits="userSpaceOnUse"><stop id="eRjLVuoyW9b66-fill-0" offset="0%" stop-color="rgba(255,255,255,0.25)"/><stop id="eRjLVuoyW9b66-fill-1" offset="100%" stop-color="rgba(255,255,255,0.5)"/></linearGradient></defs><g id="eRjLVuoyW9b2" transform="matrix(1 0 0 1 0 -862.522207)"><g id="eRjLVuoyW9b3_ts" transform="translate(1200,4252.892308) scale(1,1)"><ellipse id="eRjLVuoyW9b3" rx="800" ry="400" transform="translate(0,0)" clip-rule="evenodd" fill="rgb(0,0,0)" fill-opacity="0.05" fill-rule="evenodd" stroke="none" stroke-width="1" stroke-linecap="round" stroke-linejoin="round" stroke-miterlimit="1.5"/></g><g id="eRjLVuoyW9b4_to" transform="translate(1200,3512.892308)"><g id="eRjLVuoyW9b4_ts" transform="scale(1,1)"><g id="eRjLVuoyW9b4" transform="translate(-1200,-1860)"><ellipse id="eRjLVuoyW9b5" rx="1000" ry="900" transform="matrix(1 0 0 1 1200 1860)" clip-rule="evenodd" fill="url(#eRjLVuoyW9b5-fill)" fill-rule="evenodd" stroke="none" stroke-width="1" stroke-linecap="round" stroke-linejoin="round" stroke-miterlimit="1.5"/><ellipse id="eRjLVuoyW9b6" rx="975" ry="877.5" transform="matrix(1 0 0 1 1200 1837.5)" clip-rule="evenodd" fill="url(#eRjLVuoyW9b6-fill)" fill-rule="evenodd" stroke="none" stroke-width="1" stroke-linecap="round" stroke-linejoin="round" stroke-miterlimit="1.5"/><ellipse id="eRjLVuoyW9b7" rx="975" ry="877.5" transform="matrix(1 0 0 1 1200 1837.5)" clip-rule="evenodd" fill="url(#eRjLVuoyW9b7-fill)" fill-rule="evenodd" stroke="none" stroke-width="1" stroke-linecap="round" stroke-linejoin="round" stroke-miterlimit="1.5"/><ellipse id="eRjLVuoyW9b8" rx="660" ry="490" transform="matrix(1 0 0 1 1200 1470)" clip-rule="evenodd" fill="url(#eRjLVuoyW9b8-fill)" fill-rule="evenodd" stroke="none" stroke-width="1" stroke-linecap="round" stroke-linejoin="round" stroke-miterlimit="1.5"/><ellipse id="eRjLVuoyW9b9" rx="480" ry="320" transform="matrix(1 0 0 1 1200 1140)" clip-rule="evenodd" fill="url(#eRjLVuoyW9b9-fill)" fill-rule="evenodd" stroke="none" stroke-width="1" stroke-linecap="round" stroke-linejoin="round" stroke-miterlimit="1.5"/><path id="eRjLVuoyW9b10" d="M1014.84,1443C1036.812,1470.086,1112.215,1492.076,1200,1492.076C1287.785,1492.076,1363.188,1470.086,1385.16,1443C1349.389,1460.683,1278.736,1475.039,1200,1475.039C1121.264,1475.039,1050.611,1460.683,1014.84,1443Z" clip-rule="evenodd" fill="rgb(255,255,255)" fill-rule="evenodd" stroke="none" stroke-width="1" stroke-linecap="round" stroke-linejoin="round" stroke-miterlimit="1.5"/><g id="eRjLVuoyW9b11" clip-rule="evenodd"><path id="eRjLVuoyW9b12" d="M650.881,1316.67C683.599,1365.811,658.313,1452.1,594.449,1509.242C530.586,1566.383,452.174,1572.879,419.456,1523.738C386.739,1474.596,412.025,1388.308,475.888,1331.166C539.752,1274.024,618.163,1267.529,650.881,1316.67Z" clip-rule="evenodd" fill="rgb(255,255,255)" fill-rule="evenodd" stroke="none" stroke-width="1" stroke-linecap="round" stroke-linejoin="round" stroke-miterlimit="1.5"/><path id="eRjLVuoyW9b13" d="M405.51,1596C420.923,1613.131,420.759,1641.977,405.145,1660.376C389.531,1678.775,364.342,1679.805,348.929,1662.675C333.517,1645.544,333.68,1616.698,349.294,1598.299C364.908,1579.9,390.098,1578.87,405.51,1596Z" clip-rule="evenodd" fill="rgb(255,255,255)" fill-rule="evenodd" stroke="none" stroke-width="1" stroke-linecap="round" stroke-linejoin="round" stroke-miterlimit="1.5"/><path id="eRjLVuoyW9b14" d="M1782.15,1399.87C1808.25,1382.534,1845.882,1394.426,1866.135,1426.41C1886.388,1458.394,1881.641,1498.435,1855.541,1515.771C1829.442,1533.107,1791.809,1521.215,1771.556,1489.231C1751.303,1457.247,1756.05,1417.206,1782.15,1399.87Z" transform="matrix(1 0 0 1 0 0.000001)" clip-rule="evenodd" fill="rgb(255,255,255)" fill-rule="evenodd" stroke="none" stroke-width="1" stroke-linecap="round" stroke-linejoin="round" stroke-miterlimit="1.5"/><path id="eRjLVuoyW9b15" d="M1902.27,1372.37C1913.583,1362.005,1933.581,1365.971,1946.899,1381.22C1960.218,1396.47,1961.846,1417.266,1950.533,1427.632C1939.22,1437.997,1919.222,1434.032,1905.904,1418.782C1892.585,1403.532,1890.957,1382.736,1902.27,1372.37Z" clip-rule="evenodd" fill="rgb(255,255,255)" fill-rule="evenodd" stroke="none" stroke-width="1" stroke-linecap="round" stroke-linejoin="round" stroke-miterlimit="1.5"/></g><ellipse id="eRjLVuoyW9b16" style="isolation:isolate" rx="1000" ry="900" transform="matrix(1 0 0 1 1200 1860)" paint-order="fill markers stroke" clip-rule="evenodd" fill="none" stroke="url(#eRjLVuoyW9b16-stroke)" stroke-width="16" stroke-linecap="round" stroke-linejoin="round" stroke-miterlimit="1.5"/></g></g></g><g id="eRjLVuoyW9b17_to" transform="translate(1199.998474,2452.892308)"><g id="eRjLVuoyW9b17" transform="translate(-1199.998474,-800)" clip-rule="evenodd"><path id="eRjLVuoyW9b18" d="M1190.34,378.234C1198.652,325.38,1215.647,279.691,1234.849,252.893C1269.51,227.54,1315.885,204,1371.219,200C1355.42,245.513,1295.35,332.112,1226.667,374.983C1355.756,355.403,1474.22,406.352,1550.895,482.891C1629.468,561.324,1700.001,671.465,1700.001,880C1700.001,1056.535,1640.481,1154.612,1667.927,1283.079C1648.752,1266.389,1634.817,1241.278,1630.01,1224.593C1590.139,1285.295,1544.159,1327.068,1479.389,1364.068C1518.446,1277.827,1510.317,1231.611,1520.608,1160.094L872.725,1160.094C876.363,1241.287,887.564,1286.095,920.525,1364.068C865.735,1327.564,818.241,1292.53,775.925,1224.593C768.216,1247.904,757.592,1264.924,736.972,1283.079C767.957,1147.66,700.001,1062.651,700.001,880C700.001,723.349,746.93,595.644,830.211,509.414C913.016,423.677,1054.806,354.866,1190.34,378.234Z" clip-rule="evenodd" fill="url(#eRjLVuoyW9b18-fill)" fill-rule="evenodd" stroke="url(#eRjLVuoyW9b18-stroke)" stroke-width="16" stroke-linecap="round" stroke-linejoin="round"/><path id="eRjLVuoyW9b19" d="M839.229,1137.62C839.229,1137.62,904.77,1110.04,864.789,1015.027C849.568,978.854,807.842,961.844,771.669,977.066C735.496,992.287,718.486,1034.013,733.707,1070.186C773.688,1165.199,839.229,1137.62,839.229,1137.62Z" transform="matrix(1 0 0 1 0 0.000001)" clip-rule="evenodd" fill="rgb(252,212,210)" fill-rule="evenodd" stroke="rgb(251,181,181)" stroke-width="16" stroke-linecap="round" stroke-miterlimit="1"/><path id="eRjLVuoyW9b20" d="M1560.77,1137.62C1560.77,1137.62,1495.229,1110.04,1535.21,1015.027C1550.431,978.854,1592.157,961.844,1628.33,977.066C1664.503,992.287,1681.513,1034.013,1666.292,1070.186C1626.311,1165.199,1560.77,1137.62,1560.77,1137.62Z" transform="matrix(1 0 0 1 0 0.000001)" clip-rule="evenodd" fill="rgb(252,212,210)" fill-rule="evenodd" stroke="rgb(251,181,181)" stroke-width="16" stroke-linecap="round" stroke-miterlimit="1"/><path id="eRjLVuoyW9b21" d="M1200,1400C1068,1400,971.537,1349.772,884,1272.992C831.203,1226.683,776,1096.732,776,947.633C776,699.376,949.96,493.924,1200,493.923C1450.04,493.924,1624,699.376,1624,947.633C1624,1096.732,1568.797,1226.683,1516,1272.992C1428.463,1349.772,1332,1400,1200,1400Z" transform="matrix(1 0 0 1 0 0.000001)" clip-rule="evenodd" fill="rgb(255,224,224)" fill-rule="evenodd" stroke="none" stroke-width="1" stroke-linecap="round" stroke-linejoin="round" stroke-miterlimit="1.5"/><g id="eRjLVuoyW9b22" clip-path="url(#eRjLVuoyW9b27)" clip-rule="evenodd"><g id="eRjLVuoyW9b23"><ellipse id="eRjLVuoyW9b24" rx="274.594" ry="100.973" transform="matrix(1 0 0 1 910.807 1186.65)" clip-rule="evenodd" fill="url(#eRjLVuoyW9b24-fill)" fill-rule="evenodd" stroke="none" stroke-width="1" stroke-linecap="round" stroke-linejoin="round" stroke-miterlimit="1.5"/><ellipse id="eRjLVuoyW9b25" rx="274.594" ry="100.973" transform="matrix(1 0 0 1 1489.19 1186.65)" clip-rule="evenodd" fill="url(#eRjLVuoyW9b25-fill)" fill-rule="evenodd" stroke="none" stroke-width="1" stroke-linecap="round" stroke-linejoin="round" stroke-miterlimit="1.5"/><path id="eRjLVuoyW9b26" d="M1216.33,481.604C960.418,488.386,833.908,591.485,772.997,722.219C739.16,794.843,763.825,841.984,774.927,902.21C782.016,940.664,773.454,1018.778,772.956,1062.414C822.033,1020.486,858.046,934.041,859.986,896.9C964.71,975.803,1141.634,1013.47,1301.827,966.006C1262.069,934.7,1236.659,893.242,1220.199,862.31C1303.304,928.122,1416.69,984.705,1582.683,952.895C1584.092,975.634,1631.174,1034.553,1643.04,1061.251C1643.04,1061.251,1636.672,988.648,1668.778,935.155C1676.201,922.786,1668.884,887.67,1671.068,871.776C1693.771,706.518,1475.136,474.746,1216.33,481.604Z" clip-rule="evenodd" fill="rgb(252,212,210)" fill-rule="evenodd" stroke="none" stroke-width="1" stroke-linecap="round" stroke-linejoin="round" stroke-miterlimit="1.5"/></g><clipPath id="eRjLVuoyW9b27"><path id="eRjLVuoyW9b28" d="M1200,1400C1068,1400,971.537,1349.772,884,1272.992C831.203,1226.683,776,1096.732,776,947.633C776,699.376,949.96,493.924,1200,493.923C1450.04,493.924,1624,699.376,1624,947.633C1624,1096.732,1568.797,1226.683,1516,1272.992C1428.463,1349.772,1332,1400,1200,1400Z" clip-rule="evenodd" fill="rgb(0,0,0)" fill-rule="evenodd" stroke="none" stroke-width="1" stroke-linecap="round" stroke-linejoin="round" stroke-miterlimit="1.5"/></clipPath></g><path id="eRjLVuoyW9b29" d="M1200,1400C1068,1400,971.537,1349.772,884,1272.992C831.203,1226.683,776,1096.732,776,947.633C776,699.376,949.96,493.924,1200,493.923C1450.04,493.924,1624,699.376,1624,947.633C1624,1096.732,1568.797,1226.683,1516,1272.992C1428.463,1349.772,1332,1400,1200,1400Z" transform="matrix(1 0 0 1 0 0.000001)" clip-rule="evenodd" fill="none" fill-rule="evenodd" stroke="rgb(251,181,181)" stroke-width="16" stroke-linecap="round" stroke-miterlimit="1"/><path id="eRjLVuoyW9b30" d="M1198.53,469.738C942.618,476.52,747.598,633.791,747.598,850.947C747.598,870.566,748.952,887.199,751.003,901.864C759.732,964.278,781.08,991.049,764.35,1060.663C814.254,1021.743,832.678,934.407,838.078,896.609C941.907,958.139,1149.566,990.772,1291.96,964.073C1253.395,942.365,1181.155,881.009,1164.398,848.377C1253.395,930.122,1434.354,961.106,1567.849,931.441C1573.709,966.833,1597.3,1020.151,1638.905,1056.414C1628.959,1008.673,1636.293,965.804,1643.182,916.103C1646.567,891.684,1649.844,865.616,1650.912,836.511C1657.03,669.814,1457.335,462.88,1198.53,469.738Z" transform="matrix(1 0 0 1 0 0.000001)" clip-rule="evenodd" fill="url(#eRjLVuoyW9b30-fill)" fill-rule="evenodd" stroke="none" stroke-width="1" stroke-linecap="round" stroke-linejoin="round" stroke-miterlimit="1.5"/><path id="eRjLVuoyW9b31" d="M758.167,939.175C767.363,978.35,777.352,1006.574,764.353,1060.663C814.257,1021.743,832.681,934.407,838.081,896.609C941.91,958.139,1149.569,990.772,1291.963,964.073C1253.398,942.365,1181.158,881.009,1164.401,848.377C1253.398,930.122,1434.357,961.106,1567.852,931.441C1573.712,966.833,1597.303,1020.151,1638.908,1056.414C1631.073,1018.804,1633.961,984.218,1638.908,946.934" clip-rule="evenodd" fill="none" fill-rule="evenodd" stroke="rgb(30,150,141)" stroke-width="16" stroke-linecap="round" stroke-linejoin="round" stroke-miterlimit="44"/><path id="eRjLVuoyW9b32" d="M1104,1245.89C1104,1293.906,1147.016,1332.89,1200,1332.89C1252.984,1332.89,1296,1293.906,1296,1245.89C1277.028,1226.341,1240.543,1210.47,1200,1210.47C1159.457,1210.47,1122.972,1226.341,1104,1245.89Z" transform="matrix(1 0 0 1 0 0.000001)" clip-rule="evenodd" fill="rgb(255,138,158)" fill-rule="evenodd" stroke="none" stroke-width="1" stroke-linecap="round" stroke-linejoin="round" stroke-miterlimit="1.5"/><g id="eRjLVuoyW9b33" clip-path="url(#eRjLVuoyW9b36)" clip-rule="evenodd"><g id="eRjLVuoyW9b34"><ellipse id="eRjLVuoyW9b35" rx="102" ry="29.415" transform="matrix(1 0 0 1 1200 1204.48)" clip-rule="evenodd" fill="rgb(255,255,255)" fill-rule="evenodd" stroke="none" stroke-width="1" stroke-linecap="round" stroke-linejoin="round" stroke-miterlimit="1.5"/></g><clipPath id="eRjLVuoyW9b36"><path id="eRjLVuoyW9b37" d="M1104,1245.89C1104,1293.906,1147.016,1332.89,1200,1332.89C1252.984,1332.89,1296,1293.906,1296,1245.89C1277.028,1226.341,1240.543,1210.47,1200,1210.47C1159.457,1210.47,1122.972,1226.341,1104,1245.89Z" clip-rule="evenodd" fill="rgb(0,0,0)" fill-rule="evenodd" stroke="none" stroke-width="1" stroke-linecap="round" stroke-linejoin="round" stroke-miterlimit="1.5"/></clipPath></g><g id="eRjLVuoyW9b38" clip-rule="evenodd"><g id="eRjLVuoyW9b39" transform="matrix(1 0 0 1 0.000001 0)" clip-rule="evenodd"><path id="eRjLVuoyW9b40" d="M1566.66,1030.23C1548.204,1100.391,1515.165,1163.117,1437.8,1162.909C1353.55,1162.682,1341.092,1086.439,1332.218,1025.337C1330.383,1012.703,1329.278,997.811,1330.299,985.251C1330.984,976.659,1335.334,968.777,1342.239,963.618C1403.448,918.001,1485.957,911.106,1554.861,966.393C1567.37,976.334,1573.661,992.168,1571.386,1007.982C1570.18,1016.41,1568.299,1023.999,1566.66,1030.23Z" clip-rule="evenodd" fill="rgb(255,255,255)" fill-rule="evenodd" stroke="none" stroke-width="1" stroke-linecap="round" stroke-linejoin="round" stroke-miterlimit="1.5"/><g id="eRjLVuoyW9b41" transform="matrix(1 0 0 1 0.000001 0)" clip-path="url(#eRjLVuoyW9b54)" clip-rule="evenodd"><g id="eRjLVuoyW9b42" transform="matrix(1 0 0 1 0.000001 0)"><g id="eRjLVuoyW9b43" clip-rule="evenodd"><ellipse id="eRjLVuoyW9b44" rx="76.353" ry="101.863" transform="matrix(1 0 0 1 1438.62 1057.63)" clip-rule="evenodd" fill="url(#eRjLVuoyW9b44-fill)" fill-rule="evenodd" stroke="none" stroke-width="1" stroke-linecap="round" stroke-linejoin="round" stroke-miterlimit="1.5"/><ellipse id="eRjLVuoyW9b45" rx="31.31" ry="52.156" transform="matrix(1 0 0 1 1438.62 1057.63)" clip-rule="evenodd" fill="url(#eRjLVuoyW9b45-fill)" fill-rule="evenodd" stroke="none" stroke-width="1" stroke-linecap="round" stroke-linejoin="round" stroke-miterlimit="1.5"/><path id="eRjLVuoyW9b46" d="M1363.71,1077.4C1362.766,1071.011,1362.271,1064.4,1362.271,1057.637C1362.271,1001.417,1396.483,955.774,1438.623,955.774C1480.764,955.774,1514.976,1001.417,1514.976,1057.637C1514.976,1064.428,1514.477,1071.065,1513.524,1077.491C1462.815,1031.835,1412.638,1033.139,1363.71,1077.4Z" transform="matrix(1 0 0 1 0 0.000001)" clip-rule="evenodd" fill="rgb(0,0,0)" fill-opacity="0.25" fill-rule="evenodd" stroke="none" stroke-width="1" stroke-linecap="round" stroke-linejoin="round" stroke-miterlimit="1.5"/><g id="eRjLVuoyW9b47" clip-rule="evenodd"><path id="eRjLVuoyW9b48" d="M1421.41,975.901C1430.575,982.944,1429.551,999.677,1419.125,1013.244C1408.698,1026.812,1392.793,1032.109,1383.628,1025.066C1374.464,1018.023,1375.488,1001.29,1385.914,987.723C1396.34,974.155,1412.246,968.858,1421.41,975.901Z" clip-rule="evenodd" fill="rgb(255,255,255)" fill-rule="evenodd" stroke="none" stroke-width="1" stroke-linecap="round" stroke-linejoin="round" stroke-miterlimit="1.5"/><ellipse id="eRjLVuoyW9b49" rx="31.614" ry="22.679" transform="matrix(1 0 0 1 1438.62 1134.45)" clip-rule="evenodd" fill="url(#eRjLVuoyW9b49-fill)" fill-rule="evenodd" stroke="none" stroke-width="1" stroke-linecap="round" stroke-linejoin="round" stroke-miterlimit="1.5"/><ellipse id="eRjLVuoyW9b50" rx="6.42" ry="5.304" transform="matrix(1 0 0 1 1450.86 1149.12)" clip-rule="evenodd" fill="rgb(255,255,255)" fill-opacity="0.5" fill-rule="evenodd" stroke="none" stroke-width="1" stroke-linecap="round" stroke-linejoin="round" stroke-miterlimit="1.5"/><ellipse id="eRjLVuoyW9b51" rx="7.278" ry="7.524" transform="matrix(1 0 0 1 1452.72 1092.49)" clip-rule="evenodd" fill="rgb(255,255,255)" fill-rule="evenodd" stroke="none" stroke-width="1" stroke-linecap="round" stroke-linejoin="round" stroke-miterlimit="1.5"/><ellipse id="eRjLVuoyW9b52" rx="2.33" ry="2.409" transform="matrix(1 0 0 1 1444.61 1082.89)" clip-rule="evenodd" fill="rgb(255,255,255)" fill-rule="evenodd" stroke="none" stroke-width="1" stroke-linecap="round" stroke-linejoin="round" stroke-miterlimit="1.5"/></g></g><path id="eRjLVuoyW9b53" d="M1315.27,919.412L1580.682,919.412L1580.682,1024.383L1568.15,1024.383C1487.428,949.824,1409.942,951.41,1331.622,1020.937L1315.27,1020.937L1315.27,919.412Z" transform="matrix(1 0 0 1 0.000001 0)" clip-rule="evenodd" fill="rgb(17,87,81)" fill-rule="evenodd" stroke="none" stroke-width="1" stroke-linecap="round" stroke-linejoin="round" stroke-miterlimit="1.5"/></g><clipPath id="eRjLVuoyW9b54"><path id="eRjLVuoyW9b55" d="M1566.66,1030.23C1548.204,1100.391,1515.165,1163.117,1437.8,1162.909C1353.55,1162.682,1341.092,1086.439,1332.218,1025.337C1330.383,1012.703,1329.278,997.811,1330.299,985.251C1330.984,976.659,1335.334,968.777,1342.239,963.618C1403.448,918.001,1485.957,911.106,1554.861,966.393C1567.37,976.334,1573.661,992.168,1571.386,1007.982C1570.18,1016.41,1568.299,1023.999,1566.66,1030.23Z" clip-rule="evenodd" fill="rgb(0,0,0)" fill-rule="evenodd" stroke="none" stroke-width="1" stroke-linecap="round" stroke-linejoin="round" stroke-miterlimit="1.5"/></clipPath></g></g><g id="eRjLVuoyW9b56" clip-rule="evenodd"><path id="eRjLVuoyW9b57" d="M833.344,1030.23C851.8,1100.391,884.839,1163.117,962.204,1162.909C1046.454,1162.682,1058.912,1086.439,1067.786,1025.337C1069.621,1012.703,1070.726,997.811,1069.705,985.251C1069.02,976.659,1064.67,968.777,1057.765,963.618C996.556,918.001,914.047,911.106,845.143,966.393C832.634,976.334,826.343,992.168,828.618,1007.982C829.824,1016.41,831.705,1023.999,833.344,1030.23Z" clip-rule="evenodd" fill="rgb(255,255,255)" fill-rule="evenodd" stroke="none" stroke-width="1" stroke-linecap="round" stroke-linejoin="round" stroke-miterlimit="1.5"/><g id="eRjLVuoyW9b58" clip-path="url(#eRjLVuoyW9b71)" clip-rule="evenodd"><g id="eRjLVuoyW9b59"><g id="eRjLVuoyW9b60" clip-rule="evenodd"><ellipse id="eRjLVuoyW9b61" rx="76.353" ry="101.863" transform="matrix(1 0 0 1 961.381 1057.63)" clip-rule="evenodd" fill="url(#eRjLVuoyW9b61-fill)" fill-rule="evenodd" stroke="none" stroke-width="1" stroke-linecap="round" stroke-linejoin="round" stroke-miterlimit="1.5"/><ellipse id="eRjLVuoyW9b62" rx="31.31" ry="52.156" transform="matrix(1 0 0 1 961.381 1057.63)" clip-rule="evenodd" fill="url(#eRjLVuoyW9b62-fill)" fill-rule="evenodd" stroke="none" stroke-width="1" stroke-linecap="round" stroke-linejoin="round" stroke-miterlimit="1.5"/><path id="eRjLVuoyW9b63" d="M886.467,1077.4C885.523,1071.011,885.028,1064.4,885.028,1057.637C885.028,1001.417,919.24,955.774,961.381,955.774C1003.521,955.774,1037.733,1001.417,1037.733,1057.637C1037.733,1064.428,1037.234,1071.065,1036.281,1077.491C985.572,1031.835,935.395,1033.139,886.467,1077.4Z" transform="matrix(1 0 0 1 0 0.000001)" clip-rule="evenodd" fill="rgb(0,0,0)" fill-opacity="0.25" fill-rule="evenodd" stroke="none" stroke-width="1" stroke-linecap="round" stroke-linejoin="round" stroke-miterlimit="1.5"/><g id="eRjLVuoyW9b64" clip-rule="evenodd"><path id="eRjLVuoyW9b65" d="M944.176,975.901C953.341,982.944,952.317,999.677,941.891,1013.244C931.464,1026.812,915.559,1032.109,906.394,1025.066C897.23,1018.023,898.254,1001.29,908.68,987.723C919.106,974.155,935.012,968.858,944.176,975.901Z" clip-rule="evenodd" fill="rgb(255,255,255)" fill-rule="evenodd" stroke="none" stroke-width="1" stroke-linecap="round" stroke-linejoin="round" stroke-miterlimit="1.5"/><ellipse id="eRjLVuoyW9b66" rx="31.614" ry="22.679" transform="matrix(1 0 0 1 961.381 1134.45)" clip-rule="evenodd" fill="url(#eRjLVuoyW9b66-fill)" fill-rule="evenodd" stroke="none" stroke-width="1" stroke-linecap="round" stroke-linejoin="round" stroke-miterlimit="1.5"/><ellipse id="eRjLVuoyW9b67" rx="6.42" ry="5.304" transform="matrix(1 0 0 1 973.625 1149.12)" clip-rule="evenodd" fill="rgb(255,255,255)" fill-opacity="0.5" fill-rule="evenodd" stroke="none" stroke-width="1" stroke-linecap="round" stroke-linejoin="round" stroke-miterlimit="1.5"/><ellipse id="eRjLVuoyW9b68" rx="7.278" ry="7.524" transform="matrix(1 0 0 1 975.482 1092.49)" clip-rule="evenodd" fill="rgb(255,255,255)" fill-rule="evenodd" stroke="none" stroke-width="1" stroke-linecap="round" stroke-linejoin="round" stroke-miterlimit="1.5"/><ellipse id="eRjLVuoyW9b69" rx="2.33" ry="2.409" transform="matrix(1 0 0 1 967.369 1082.89)" clip-rule="evenodd" fill="rgb(255,255,255)" fill-rule="evenodd" stroke="none" stroke-width="1" stroke-linecap="round" stroke-linejoin="round" stroke-miterlimit="1.5"/></g></g><path id="eRjLVuoyW9b70" d="M1084.74,919.412L819.328,919.412L819.328,1024.383L831.86,1024.383C912.582,949.824,990.068,951.41,1068.388,1020.937L1084.74,1020.937L1084.74,919.412Z" clip-rule="evenodd" fill="rgb(17,87,81)" fill-rule="evenodd" stroke="none" stroke-width="1" stroke-linecap="round" stroke-linejoin="round" stroke-miterlimit="1.5"/></g><clipPath id="eRjLVuoyW9b71"><path id="eRjLVuoyW9b72" d="M833.344,1030.23C851.8,1100.391,884.839,1163.117,962.204,1162.909C1046.454,1162.682,1058.912,1086.439,1067.786,1025.337C1069.621,1012.703,1070.726,997.811,1069.705,985.251C1069.02,976.659,1064.67,968.777,1057.765,963.618C996.556,918.001,914.047,911.106,845.143,966.393C832.634,976.334,826.343,992.168,828.618,1007.982C829.824,1016.41,831.705,1023.999,833.344,1030.23Z" clip-rule="evenodd" fill="rgb(0,0,0)" fill-rule="evenodd" stroke="none" stroke-width="1" stroke-linecap="round" stroke-linejoin="round" stroke-miterlimit="1.5"/></clipPath></g></g></g><g id="eRjLVuoyW9b73" clip-rule="evenodd"><path id="eRjLVuoyW9b74" d="M1516.83,857.079C1520.211,858.847,1524.38,857.828,1526.565,854.699C1528.749,851.57,1528.27,847.306,1525.445,844.74C1508.13,829.733,1480.516,821.486,1452.274,821.225C1423.475,820.959,1394.496,828.19,1377.067,843.197C1374.37,845.611,1373.883,849.651,1375.928,852.637C1377.974,855.622,1381.917,856.627,1385.142,854.984C1403.94,845.684,1429.246,842.065,1452.274,842.608C1475.064,843.145,1498.931,848.152,1516.83,857.079Z" clip-rule="evenodd" fill="rgb(17,87,81)" fill-rule="evenodd" stroke="none" stroke-width="1" stroke-linecap="round" stroke-linejoin="round" stroke-miterlimit="1.5"/><path id="eRjLVuoyW9b75" d="M883.17,857.079C879.789,858.847,875.62,857.828,873.435,854.699C871.251,851.57,871.73,847.306,874.555,844.74C891.87,829.733,919.484,821.486,947.726,821.225C976.525,820.959,1005.504,828.19,1022.933,843.197C1025.63,845.611,1026.117,849.651,1024.072,852.637C1022.026,855.622,1018.083,856.627,1014.858,854.984C996.06,845.684,970.754,842.065,947.726,842.608C924.936,843.145,901.069,848.152,883.17,857.079Z" clip-rule="evenodd" fill="rgb(17,87,81)" fill-rule="evenodd" stroke="none" stroke-width="1" stroke-linecap="round" stroke-linejoin="round" stroke-miterlimit="1.5"/></g><g id="eRjLVuoyW9b76" clip-rule="evenodd"><path id="eRjLVuoyW9b77" d="M1030.58,520.861C1056.161,551.391,1041.284,606.093,997.378,642.94C953.473,679.787,897.058,684.915,871.477,654.384C845.895,623.854,860.772,569.152,904.678,532.305C948.584,495.458,1004.998,490.33,1030.58,520.861Z" clip-rule="evenodd" fill="rgb(255,255,255)" fill-rule="evenodd" stroke="none" stroke-width="1" stroke-linecap="round" stroke-linejoin="round" stroke-miterlimit="1.5"/><path id="eRjLVuoyW9b78" d="M1516.81,638.106C1528.193,635.104,1540.358,643.719,1543.959,657.331C1547.56,670.944,1541.242,684.432,1529.859,687.433C1518.476,690.435,1506.311,681.82,1502.71,668.208C1499.109,654.596,1505.427,641.107,1516.81,638.106Z" transform="matrix(1 0 0 1 0.000001 0)" clip-rule="evenodd" fill="rgb(255,255,255)" fill-rule="evenodd" stroke="none" stroke-width="1" stroke-linecap="round" stroke-linejoin="round" stroke-miterlimit="1.5"/><path id="eRjLVuoyW9b79" d="M1563.17,642.636C1568.432,640.335,1575.167,644.086,1578.201,651.009C1581.235,657.932,1579.426,665.42,1574.164,667.722C1568.901,670.023,1562.166,666.271,1559.132,659.348C1556.098,652.426,1557.907,644.937,1563.17,642.636Z" transform="matrix(1 0 0 1 0 0.000001)" clip-rule="evenodd" fill="rgb(255,255,255)" fill-rule="evenodd" stroke="none" stroke-width="1" stroke-linecap="round" stroke-linejoin="round" stroke-miterlimit="1.5"/><path id="eRjLVuoyW9b80" d="M849.39,681.653C861.203,692.243,862.221,710.42,851.661,722.219C841.101,734.018,822.936,734.999,811.122,724.41C799.309,713.82,798.291,695.642,808.851,683.843C819.411,672.044,837.576,671.063,849.39,681.653Z" clip-rule="evenodd" fill="rgb(255,255,255)" fill-rule="evenodd" stroke="none" stroke-width="1" stroke-linecap="round" stroke-linejoin="round" stroke-miterlimit="1.5"/></g></g></g></g></svg>