<?xml version="1.0" encoding="UTF-8" standalone="no"?><!DOCTYPE svg PUBLIC "-//W3C//DTD SVG 1.1//EN" "http://www.w3.org/Graphics/SVG/1.1/DTD/svg11.dtd"><svg width="100%" height="100%" viewBox="0 0 60 60" version="1.1" xmlns="http://www.w3.org/2000/svg" xmlns:xlink="http://www.w3.org/1999/xlink" xml:space="preserve" xmlns:serif="http://www.serif.com/" style="fill-rule:evenodd;clip-rule:evenodd;stroke-linecap:round;stroke-linejoin:round;stroke-miterlimit:1.5;"><rect id="more" x="0" y="0" width="60" height="60" style="fill:none;"/><clipPath id="_clip1"><rect id="more1" serif:id="more" x="0" y="0" width="60" height="60"/></clipPath><g clip-path="url(#_clip1)"><circle cx="30" cy="30" r="30" style="fill:#26bfb3;"/><clipPath id="_clip2"><circle cx="30" cy="30" r="30"/></clipPath><g clip-path="url(#_clip2)"><path d="M14,42.5c0,0 2.963,-25 10,-25c7.037,-0 10,25 10,25c0,-0 1.638,-12 6,-12c4.362,0 6,12 6,12" style="fill:none;stroke:#fff;stroke-width:6px;"/><path d="M46,42.5c0,0 2.963,-25 10,-25c7.037,-0 10,25 10,25" style="fill:none;stroke:#fff;stroke-opacity:0.25;stroke-width:6px;"/><path d="M-8,17.5c7.037,-0 10,25 10,25c0,-0 1.638,-12 6,-12c4.362,-0 6,12 6,12" style="fill:none;stroke:#fff;stroke-opacity:0.25;stroke-width:6px;"/></g></g></svg>