<?xml version="1.0" encoding="UTF-8" standalone="no"?><!DOCTYPE svg PUBLIC "-//W3C//DTD SVG 1.1//EN" "http://www.w3.org/Graphics/SVG/1.1/DTD/svg11.dtd"><svg width="100%" height="100%" viewBox="0 0 1000 1000" version="1.1" xmlns="http://www.w3.org/2000/svg" xmlns:xlink="http://www.w3.org/1999/xlink" xml:space="preserve" xmlns:serif="http://www.serif.com/" style="fill-rule:evenodd;clip-rule:evenodd;stroke-linecap:round;stroke-linejoin:round;stroke-miterlimit:1.5;"><rect id="Artboard2" x="0" y="0" width="1000" height="1000" style="fill:#26bfb3;"/><clipPath id="_clip1"><rect id="Artboard21" serif:id="Artboard2" x="0" y="0" width="1000" height="1000"/></clipPath><g clip-path="url(#_clip1)"><circle cx="500" cy="500" r="500" style="fill:none;"/><g><ellipse cx="500" cy="1616.01" rx="1200" ry="1080" style="fill:url(#_Radial2);"/><ellipse cx="500" cy="1616.01" rx="1200" ry="1080" style="fill:url(#_Radial3);"/><clipPath id="_clip4"><ellipse cx="500" cy="1616.01" rx="1200" ry="1080"/></clipPath><g clip-path="url(#_clip4)"><path d="M1566.49,1326.97c-51.841,-412.483 -511.871,-747.367 -1066.49,-747.367c-554.615,-0 -1014.64,334.884 -1066.49,747.367c116.684,324.401 554.391,587.773 1066.49,587.773c512.095,0 949.802,-263.372 1066.49,-587.773Z" style="fill:url(#_Radial5);"/><ellipse cx="500" cy="752.007" rx="595.281" ry="393.046" style="fill:url(#_Radial6);"/></g><ellipse cx="500" cy="1616.01" rx="1200" ry="1080" style="fill:none;stroke:url(#_Linear7);stroke-width:19.2px;"/><g><path d="M547.058,-168.986c225.524,-19.456 551.392,149.495 551.392,607.456c-0,211.841 -33.644,288.846 49.33,437.085c-29.362,-3.56 -84.36,-31.471 -107.811,-70.348c-24.806,83.694 -74.573,160.469 -160.972,211.068c44.784,-118.255 43,-181.29 21.86,-246.54l-775.375,-15.74c-50.951,67.542 -34.912,178.605 1.355,262.28c-103.707,-71.016 -141.956,-131.527 -184.692,-205.594c-24.759,27.892 -48.106,56.867 -89.925,80.25c85.223,-193.349 46.23,-248.533 46.23,-452.461c-0,-294.8 184.394,-623.874 582.239,-601.234c11.474,-62.416 37.663,-128.635 59.209,-158.705c41.592,-30.423 108.923,-55.471 172.763,-54.511c-17.393,50.104 -86.416,148.833 -165.603,206.994Z" style="fill:url(#_Radial8);stroke:url(#_Linear9);stroke-width:19.2px;stroke-miterlimit:4;"/><g><path d="M67.075,749.162c0,0 78.649,-33.095 30.672,-147.11c-18.266,-43.408 -68.337,-63.82 -111.744,-45.554c-43.408,18.265 -63.82,68.336 -45.554,111.744c47.977,114.016 126.626,80.92 126.626,80.92Z" style="fill:#fcd4d2;stroke:#fbb5b5;stroke-width:19.2px;stroke-linejoin:miter;stroke-miterlimit:1;"/><path d="M932.925,749.162c-0,0 -78.649,-33.095 -30.672,-147.11c18.266,-43.408 68.337,-63.82 111.744,-45.554c43.408,18.265 63.82,68.336 45.554,111.744c-47.977,114.016 -126.626,80.92 -126.626,80.92Z" style="fill:#fcd4d2;stroke:#fbb5b5;stroke-width:19.2px;stroke-linejoin:miter;stroke-miterlimit:1;"/></g><path d="M500,1064.02c-158.4,0 -274.156,-60.274 -379.2,-152.41c-63.356,-55.571 -129.6,-211.511 -129.6,-390.431l127.2,-200.27l677.506,0l212.894,200.27c0,178.92 -66.244,334.86 -129.6,390.431c-105.044,92.136 -220.8,152.41 -379.2,152.41Z" style="fill:#ffe0e0;"/><clipPath id="_clip10"><path d="M500,1064.02c-158.4,0 -274.156,-60.274 -379.2,-152.41c-63.356,-55.571 -129.6,-211.511 -129.6,-390.431l127.2,-200.27l677.506,0l212.894,200.27c0,178.92 -66.244,334.86 -129.6,390.431c-105.044,92.136 -220.8,152.41 -379.2,152.41Z"/></clipPath><g clip-path="url(#_clip10)"><ellipse cx="152.969" cy="807.998" rx="329.513" ry="121.167" style="fill:url(#_Radial11);"/><ellipse cx="847.031" cy="807.998" rx="329.513" ry="121.167" style="fill:url(#_Radial12);"/><path d="M519.599,-38.055c-307.095,8.138 -458.906,131.857 -532,288.738c-40.604,87.149 -11.007,143.718 2.316,215.989c8.507,46.145 -5.835,192.755 -6.433,245.118c71.095,-50.313 112.306,-203.455 114.635,-248.025c125.668,94.684 335.178,139.418 527.41,82.46c-47.71,-37.566 -81.534,-90.315 -101.286,-127.433c99.726,78.975 236.9,155.4 436.091,117.228c1.691,27.287 57.079,89.463 71.319,121.502c-0,-0 -7.642,-87.124 30.884,-151.316c8.909,-14.843 0.128,-56.982 2.749,-76.055c27.243,-198.309 -235.119,-476.436 -545.685,-468.206Z" style="fill:#ffd1d1;"/></g><path d="M500,1064.02c-158.4,0 -274.156,-60.274 -379.2,-152.41c-63.356,-55.571 -129.6,-211.511 -129.6,-390.431l127.2,-200.27l677.506,0l212.894,200.27c0,178.92 -66.244,334.86 -129.6,390.431c-105.044,92.136 -220.8,152.41 -379.2,152.41Z" style="fill:none;stroke:#fbb5b5;stroke-width:19.2px;stroke-linejoin:miter;stroke-miterlimit:1;"/><path d="M1041.1,387.833l-555.498,-315.013l-562.34,341.878c42.834,73.271 73.402,254.098 39.513,337.165c92.513,-107.615 103.431,-248.602 109.911,-293.959c124.595,73.836 340.236,121.612 527.563,92.864c-46.279,-26.049 -122.857,-109.537 -142.965,-148.695c106.795,98.094 320.593,128.024 480.787,92.425c-8.092,45.221 29.854,207.019 90.276,248.626c-11.936,-57.29 -4.79,-200.139 3.477,-259.78c4.062,-29.303 7.995,-60.584 9.276,-95.511Z" style="fill:url(#_Radial13);"/><path d="M988.55,174.537c-31.325,-172.6 -239.453,-312.728 -488.55,-312.728c-249.097,-0 -457.225,140.128 -488.55,312.728c53.452,143.561 253.963,260.115 488.55,260.115c234.587,0 435.098,-116.554 488.55,-260.115Z" style="fill:url(#_Radial14);"/><g><path d="M859.812,78.577c16.232,-8.207 37.459,1.049 47.373,20.657c9.913,19.608 4.782,42.19 -11.45,50.397c-16.233,8.207 -37.46,-1.05 -47.373,-20.658c-9.913,-19.608 -4.783,-42.19 11.45,-50.396Z" style="fill:#fff;"/><path d="M916.657,70.253c6.105,-4.845 16.266,-2.218 22.677,5.861c6.411,8.079 6.659,18.572 0.554,23.416c-6.106,4.845 -16.267,2.218 -22.678,-5.861c-6.411,-8.079 -6.659,-18.572 -0.553,-23.416Z" style="fill:#fff;"/><path d="M175.974,42.287c28.015,21.688 24.824,72.798 -7.121,114.063c-31.945,41.266 -80.626,57.161 -108.641,35.473c-28.015,-21.688 -24.824,-72.798 7.121,-114.063c31.945,-41.266 80.626,-57.161 108.641,-35.473Z" style="fill:#fff;"/><path d="M40.574,213.724c11.842,5.029 16.868,19.915 11.217,33.22c-5.651,13.305 -19.853,20.024 -31.695,14.995c-11.842,-5.03 -16.868,-19.915 -11.217,-33.22c5.651,-13.306 19.853,-20.025 31.695,-14.995Z" style="fill:#fff;"/></g><path d="M-34.379,543.005c22.814,69.486 13.044,140.01 -1.927,211.09c80.826,-76.523 98.972,-215.359 105.511,-296.753c121.085,76.645 352.069,117.128 540.273,93.426c-46.278,-26.049 -132.088,-109.537 -152.196,-148.695c106.795,98.094 329.519,117.941 480.893,96.379c1.223,69.353 37.552,195.516 94.521,255.175c-17.07,-61.485 -24.887,-148.935 -5.137,-215.676" style="fill:none;stroke:#1e968d;stroke-width:19.2px;stroke-miterlimit:44;"/><path d="M384.8,879.094c-0,57.62 51.619,104.4 115.2,104.4c63.581,-0 115.2,-46.78 115.2,-104.4c-22.766,-23.459 -66.548,-42.504 -115.2,-42.504c-48.652,-0 -92.434,19.045 -115.2,42.504Z" style="fill:#ff8a9e;"/><clipPath id="_clip15"><path d="M384.8,879.094c-0,57.62 51.619,104.4 115.2,104.4c63.581,-0 115.2,-46.78 115.2,-104.4c-22.766,-23.459 -66.548,-42.504 -115.2,-42.504c-48.652,-0 -92.434,19.045 -115.2,42.504Z"/></clipPath><g clip-path="url(#_clip15)"><ellipse cx="500" cy="829.39" rx="122.4" ry="35.298" style="fill:#fff;"/></g><g><path d="M55.435,590.927c8.003,82.082 54.852,184.315 157.668,184.949c84.962,0.524 128.054,-96.81 128.054,-164.603c-0,-53.863 -6.777,-67.553 -33.493,-86.645c-57.212,-40.887 -151.95,-44.718 -230.222,17.066c-15.585,12.184 -23.528,33.63 -22.007,49.233Z" style="fill:#fff;"/><clipPath id="_clip16"><path d="M55.435,590.927c8.003,82.082 54.852,184.315 157.668,184.949c84.962,0.524 128.054,-96.81 128.054,-164.603c-0,-53.863 -6.777,-67.553 -33.493,-86.645c-57.212,-40.887 -151.95,-44.718 -230.222,17.066c-15.585,12.184 -23.528,33.63 -22.007,49.233Z"/></clipPath><g clip-path="url(#_clip16)"><ellipse cx="210.473" cy="650.091" rx="94.656" ry="121.619" style="fill:url(#_Linear17);"/><ellipse cx="210.473" cy="650.091" rx="38.815" ry="54.276" style="fill:url(#_Linear18);"/><path d="M117.601,673.687c-1.17,-7.629 -1.784,-15.521 -1.784,-23.596c0,-67.123 42.414,-121.619 94.656,-121.619c52.242,0 94.656,54.496 94.656,121.619c0,8.109 -0.618,16.033 -1.8,23.705c-62.865,-54.512 -125.071,-52.954 -185.728,-0.109Z" style="fill-opacity:0.25;"/><path d="M189.145,552.507c11.362,8.409 10.092,28.387 -2.834,44.586c-12.925,16.199 -32.643,22.523 -44.005,14.115c-11.362,-8.409 -10.092,-28.388 2.834,-44.586c12.925,-16.199 32.643,-22.524 44.005,-14.115Z" style="fill:#fff;"/><ellipse cx="210.473" cy="739.771" rx="42.139" ry="29.114" style="fill:url(#_Linear19);"/><path d="M355.757,485.668l-313.693,0l13.216,130.2c104.35,-92.084 199.44,-95.752 297.671,-4.839l2.806,-125.361Z" style="fill:#13605a;"/></g><path d="M944.565,590.927c-8.003,82.082 -54.852,184.315 -157.668,184.949c-84.962,0.524 -128.054,-96.81 -128.054,-164.603c0,-53.863 6.777,-67.553 33.493,-86.645c57.212,-40.887 151.95,-44.718 230.222,17.066c15.585,12.184 23.528,33.63 22.007,49.233Z" style="fill:#fff;"/><clipPath id="_clip20"><path d="M944.565,590.927c-8.003,82.082 -54.852,184.315 -157.668,184.949c-84.962,0.524 -128.054,-96.81 -128.054,-164.603c0,-53.863 6.777,-67.553 33.493,-86.645c57.212,-40.887 151.95,-44.718 230.222,17.066c15.585,12.184 23.528,33.63 22.007,49.233Z"/></clipPath><g clip-path="url(#_clip20)"><ellipse cx="789.527" cy="650.091" rx="94.656" ry="121.619" style="fill:url(#_Linear21);"/><ellipse cx="789.527" cy="650.091" rx="38.815" ry="54.276" style="fill:url(#_Linear22);"/><path d="M696.654,673.687c-1.17,-7.629 -1.783,-15.521 -1.783,-23.596c-0,-67.123 42.414,-121.619 94.656,-121.619c52.242,-0 94.656,54.496 94.656,121.619c-0,8.109 -0.619,16.033 -1.801,23.705c-62.864,-54.512 -125.071,-52.954 -185.728,-0.109Z" style="fill-opacity:0.25;"/><path d="M768.198,552.507c11.362,8.409 10.092,28.387 -2.833,44.586c-12.926,16.199 -32.644,22.523 -44.006,14.115c-11.362,-8.409 -10.092,-28.388 2.834,-44.586c12.925,-16.199 32.644,-22.524 44.005,-14.115Z" style="fill:#fff;"/><ellipse cx="789.527" cy="739.771" rx="42.139" ry="29.114" style="fill:url(#_Linear23);"/><path d="M644.243,485.668l313.693,0l-13.216,130.2c-104.35,-92.084 -199.44,-95.752 -297.671,-4.839l-2.806,-125.361Z" style="fill:#13605a;"/></g></g><g><path d="M870.757,403.279c4.058,2.121 9.06,0.898 11.682,-2.856c2.621,-3.755 2.046,-8.872 -1.344,-11.951c-20.778,-18.008 -53.914,-27.904 -87.805,-28.218c-34.559,-0.319 -69.334,8.359 -90.249,26.367c-3.236,2.896 -3.821,7.744 -1.366,11.327c2.455,3.583 7.187,4.788 11.056,2.817c22.558,-11.159 52.925,-15.503 80.559,-14.851c27.349,0.644 55.989,6.653 77.467,17.365Z" style="fill:#115751;"/><path d="M129.243,403.279c-4.058,2.121 -9.06,0.898 -11.682,-2.856c-2.621,-3.755 -2.046,-8.872 1.344,-11.951c20.778,-18.008 53.914,-27.904 87.805,-28.218c34.559,-0.319 69.334,8.359 90.249,26.367c3.236,2.896 3.821,7.744 1.366,11.327c-2.455,3.583 -7.187,4.788 -11.056,2.817c-22.558,-11.159 -52.925,-15.503 -80.559,-14.851c-27.349,0.644 -55.989,6.653 -77.467,17.365Z" style="fill:#115751;"/></g></g></g></g><defs><radialGradient id="_Radial2" cx="0" cy="0" r="1" gradientUnits="userSpaceOnUse" gradientTransform="matrix(6.58094e-13,2323.15,-1732.75,4.90849e-13,500,372.861)"><stop offset="0" style="stop-color:#26bfb3;stop-opacity:1"/><stop offset="0.74" style="stop-color:#26bfb3;stop-opacity:1"/><stop offset="0.96" style="stop-color:#23afa4;stop-opacity:1"/><stop offset="1" style="stop-color:#26bfb3;stop-opacity:1"/></radialGradient><radialGradient id="_Radial3" cx="0" cy="0" r="1" gradientUnits="userSpaceOnUse" gradientTransform="matrix(3.91763,1170.83,-1333.9,4.46326,500,1674.61)"><stop offset="0" style="stop-color:#fff;stop-opacity:0"/><stop offset="0.83" style="stop-color:#fff;stop-opacity:0"/><stop offset="1" style="stop-color:#fff;stop-opacity:0.5"/></radialGradient><radialGradient id="_Radial5" cx="0" cy="0" r="1" gradientUnits="userSpaceOnUse" gradientTransform="matrix(-3.14293e-12,1319.86,-1312.8,-3.12612e-12,482.482,762.747)"><stop offset="0" style="stop-color:#fff;stop-opacity:0.45098"/><stop offset="1" style="stop-color:#fff;stop-opacity:0"/></radialGradient><radialGradient id="_Radial6" cx="0" cy="0" r="1" gradientUnits="userSpaceOnUse" gradientTransform="matrix(595.281,-1.81895e-29,-3.56837e-46,393.046,500,752.007)"><stop offset="0" style="stop-color:#003430;stop-opacity:0.5"/><stop offset="1" style="stop-color:#003430;stop-opacity:0"/></radialGradient><linearGradient id="_Linear7" x1="0" y1="0" x2="1" y2="0" gradientUnits="userSpaceOnUse" gradientTransform="matrix(1.29323e-13,2160,-2112,1.32262e-13,500,536.007)"><stop offset="0" style="stop-color:#2eaaa0;stop-opacity:1"/><stop offset="1" style="stop-color:#2a978f;stop-opacity:1"/></linearGradient><radialGradient id="_Radial8" cx="0" cy="0" r="1" gradientUnits="userSpaceOnUse" gradientTransform="matrix(-9.42208e-12,1337.57,-1337.57,-9.42208e-12,500,-135.98)"><stop offset="0" style="stop-color:#26bfb3;stop-opacity:1"/><stop offset="0.53" style="stop-color:#26bfb3;stop-opacity:1"/><stop offset="1" style="stop-color:#1e968d;stop-opacity:1"/></radialGradient><linearGradient id="_Linear9" x1="0" y1="0" x2="1" y2="0" gradientUnits="userSpaceOnUse" gradientTransform="matrix(9.17727e-14,1498.76,-1498.76,9.17727e-14,538.4,-375.98)"><stop offset="0" style="stop-color:#2eaaa0;stop-opacity:1"/><stop offset="1" style="stop-color:#268780;stop-opacity:1"/></linearGradient><radialGradient id="_Radial11" cx="0" cy="0" r="1" gradientUnits="userSpaceOnUse" gradientTransform="matrix(4.88942e-07,-121.167,329.513,3.17712e-06,152.969,807.998)"><stop offset="0" style="stop-color:#f594a7;stop-opacity:0.4"/><stop offset="1" style="stop-color:#f594a7;stop-opacity:0"/></radialGradient><radialGradient id="_Radial12" cx="0" cy="0" r="1" gradientUnits="userSpaceOnUse" gradientTransform="matrix(4.88942e-07,-121.167,329.513,3.17712e-06,847.031,807.998)"><stop offset="0" style="stop-color:#f594a7;stop-opacity:0.4"/><stop offset="1" style="stop-color:#f594a7;stop-opacity:0"/></radialGradient><radialGradient id="_Radial13" cx="0" cy="0" r="1" gradientUnits="userSpaceOnUse" gradientTransform="matrix(-9.42208e-12,1337.57,-1337.57,-9.42208e-12,500,-135.98)"><stop offset="0" style="stop-color:#26bfb3;stop-opacity:1"/><stop offset="0.53" style="stop-color:#26bfb3;stop-opacity:1"/><stop offset="1" style="stop-color:#1e968d;stop-opacity:1"/></radialGradient><radialGradient id="_Radial14" cx="0" cy="0" r="1" gradientUnits="userSpaceOnUse" gradientTransform="matrix(-2.1729e-13,567.548,-751.848,-2.8785e-13,500,-70.9587)"><stop offset="0" style="stop-color:#fff;stop-opacity:0.2"/><stop offset="1" style="stop-color:#fff;stop-opacity:0"/></radialGradient><linearGradient id="_Linear17" x1="0" y1="0" x2="1" y2="0" gradientUnits="userSpaceOnUse" gradientTransform="matrix(1.48941e-14,243.238,-243.238,1.48941e-14,210.473,528.472)"><stop offset="0" style="stop-color:#166f68;stop-opacity:1"/><stop offset="1" style="stop-color:#21c4b7;stop-opacity:1"/></linearGradient><linearGradient id="_Linear18" x1="0" y1="0" x2="1" y2="0" gradientUnits="userSpaceOnUse" gradientTransform="matrix(6.64692e-15,108.553,-108.553,6.64692e-15,210.473,595.815)"><stop offset="0" style="stop-color:#1ddecf;stop-opacity:1"/><stop offset="1" style="stop-color:#b6f1ec;stop-opacity:1"/></linearGradient><linearGradient id="_Linear19" x1="0" y1="0" x2="1" y2="0" gradientUnits="userSpaceOnUse" gradientTransform="matrix(4.46077e-12,58.2281,-60.4603,4.29607e-12,210.473,710.657)"><stop offset="0" style="stop-color:#fff;stop-opacity:0.25"/><stop offset="1" style="stop-color:#fff;stop-opacity:0.5"/></linearGradient><linearGradient id="_Linear21" x1="0" y1="0" x2="1" y2="0" gradientUnits="userSpaceOnUse" gradientTransform="matrix(1.48941e-14,243.238,-243.238,1.48941e-14,789.527,528.472)"><stop offset="0" style="stop-color:#166f68;stop-opacity:1"/><stop offset="1" style="stop-color:#21c4b7;stop-opacity:1"/></linearGradient><linearGradient id="_Linear22" x1="0" y1="0" x2="1" y2="0" gradientUnits="userSpaceOnUse" gradientTransform="matrix(6.64692e-15,108.553,-108.553,6.64692e-15,789.527,595.815)"><stop offset="0" style="stop-color:#1ddecf;stop-opacity:1"/><stop offset="1" style="stop-color:#b6f1ec;stop-opacity:1"/></linearGradient><linearGradient id="_Linear23" x1="0" y1="0" x2="1" y2="0" gradientUnits="userSpaceOnUse" gradientTransform="matrix(4.46077e-12,58.2281,-60.4603,4.29607e-12,789.527,710.657)"><stop offset="0" style="stop-color:#fff;stop-opacity:0.25"/><stop offset="1" style="stop-color:#fff;stop-opacity:0.5"/></linearGradient></defs></svg>